<svg xmlns="http://www.w3.org/2000/svg" viewBox="0 0 200 200" fill="none">
  <!-- Верхняя часть (стрелки вверх) -->
  <path d="M40 40 L40 80 L20 80 L20 40 L60 20 L100 40 L140 20 L180 40 L180 80 L160 80 L160 40 L140 50 L140 90 L100 70 L60 90 L60 50 L40 40Z" 
        fill="currentColor" stroke="currentColor" stroke-width="2" stroke-linejoin="miter"/>
  
  <!-- Текст UNITY -->
  <text x="100" y="125" font-family="Arial, sans-serif" font-weight="bold" font-size="28" 
        text-anchor="middle" fill="currentColor" letter-spacing="2">UNITY</text>
  
  <!-- Нижняя часть (щит) -->
  <path d="M60 140 L60 170 L100 190 L140 170 L140 140 L100 150 L60 140Z" 
        fill="currentColor" stroke="currentColor" stroke-width="2" stroke-linejoin="miter"/>
  
  <!-- Вертикальные линии внутри -->
  <line x1="80" y1="140" x2="80" y2="175" stroke="currentColor" stroke-width="2"/>
  <line x1="100" y1="140" x2="100" y2="185" stroke="currentColor" stroke-width="2"/>
  <line x1="120" y1="140" x2="120" y2="175" stroke="currentColor" stroke-width="2"/>
</svg>